<svg viewBox="60 56 103 129" fill="none" xmlns="http://www.w3.org/2000/svg">
  <defs>
    <clipPath id="egg-clip">
      <path d="M109.555 64.4268C130.032 64.4268 153.961 97.5763 153.961 132.526C153.961 167.476 127.502 176.307 109.555 176.307C93.4277 176.307 66.9688 161.714 66.9688 132.526C66.9688 108.931 85.2711 64.4268 109.555 64.4268Z" transform="translate(110 120) scale(0.96) translate(-110 -120)"/>
    </clipPath>
  </defs>
  <path d="M109.555 64.4268C130.032 64.4268 153.961 97.5763 153.961 132.526C153.961 167.476 127.502 176.307 109.555 176.307C93.4277 176.307 66.9688 161.714 66.9688 132.526C66.9688 108.931 85.2711 64.4268 109.555 64.4268Z" fill="#242233"/>
  <g clip-path="url(#egg-clip)">
    <path d="M109.555 64.4268C130.032 64.4268 153.961 97.5763 153.961 132.526C153.961 167.476 127.502 176.307 109.555 176.307C93.4277 176.307 66.9688 161.714 66.9688 132.526C66.9688 108.931 85.2711 64.4268 109.555 64.4268Z" fill="#FF584B"/>
  </g>
</svg>